# xmcd CD database file
#
# Track frame offsets:
#	150
#	24350
#	35182
#	48130
#	56305
#	70972
#	92865
#	110575
#	133095
#	142500
#	156447
#	179595
#
# Disc length: 2788 seconds
#
# Revision: 0
# Processed by: cddbd v1.5.1PL0 Copyright (c) Steve Scherf et al.
# Submitted via: CDex 1.51
#
DISCID=a40ae20c
DTITLE=NEWROTE'KA - 崖っぷちのDANCE〜前進前進また前進〜
DYEAR=1900
DGENRE=Japanese Rock
TTITLE0=Mr.ROCK MAN
TTITLE1=ウェンナウェイ
TTITLE2=太陽族
TTITLE3=モーレツアーパー娘
TTITLE4=花いちもんめ
TTITLE5=私の夢に出てきた白い像
TTITLE6=FUCKIN'BIRTHDAY
TTITLE7=Melody of 87
TTITLE8=ケツ
TTITLE9=Red Tail Cat Woman
TTITLE10=真美子にご用心!?
TTITLE11=ロックンロール風俗
EXTD=
EXTT0=
EXTT1=
EXTT2=
EXTT3=
EXTT4=
EXTT5=
EXTT6=
EXTT7=
EXTT8=
EXTT9=
EXTT10=
EXTT11=
PLAYORDER=
